<svg version="1.1" id="Layer_1" xmlns="http://www.w3.org/2000/svg" xmlns:xlink="http://www.w3.org/1999/xlink" x="0px" y="0px"
	 width="100%" viewBox="0 0 224 224" enable-background="new 0 0 224 224" xml:space="preserve">
<path fill="#000000" opacity="1.000000" stroke="none" 
	d="
M27.468658,225.000000 
	C29.659361,219.737396 33.700409,215.477341 37.542831,211.154572 
	C45.753754,201.917175 51.693932,191.106842 58.948166,181.216675 
	C59.741459,180.135117 59.855530,179.031937 59.108604,177.981781 
	C56.250576,173.963501 54.111725,169.198288 48.603031,167.908493 
	C44.690418,166.992416 42.701824,164.254181 40.960724,160.720184 
	C37.525173,153.746872 34.476265,146.514877 31.960098,139.297150 
	C30.312239,134.570175 28.855791,132.692932 24.207376,132.820755 
	C22.676466,132.862854 22.002888,131.565109 21.767546,130.107590 
	C21.453184,128.160675 20.273031,126.853683 18.716442,125.893372 
	C15.178679,126.648010 15.398717,132.133270 11.112772,131.613632 
	C7.309638,122.217751 9.423440,117.366714 18.549608,114.587036 
	C22.520666,113.377518 26.463560,111.888084 30.532890,111.245689 
	C34.032215,110.693275 36.900276,112.752167 39.301258,115.325203 
	C40.731537,116.857964 41.185944,119.269806 43.360569,120.144188 
	C45.994171,117.396622 51.459419,87.861694 49.972824,84.818169 
	C53.937790,84.547356 55.522644,82.992111 54.214584,78.703964 
	C52.550915,73.250023 54.582764,70.686096 60.260735,70.789558 
	C63.145763,70.842133 65.310104,69.919373 67.563797,68.292473 
	C72.536758,64.702591 78.315666,62.620827 85.431564,60.132526 
	C79.913261,58.096977 77.480949,54.736168 75.339233,50.957626 
	C74.493568,49.465660 72.838150,48.222752 71.271973,47.395607 
	C68.548439,45.957233 65.162926,44.870651 63.207878,48.029167 
	C61.352169,51.027180 61.108017,54.621181 64.825638,57.526272 
	C67.033112,55.263252 69.435074,53.478432 72.695763,54.167583 
	C73.928413,54.428104 75.637741,54.547771 75.310219,56.449917 
	C75.117172,57.571148 74.473778,58.830727 72.920906,57.562237 
	C68.994675,62.683430 64.527039,59.003254 60.234554,58.361778 
	C57.993011,58.026794 56.064987,58.995605 54.021542,59.792252 
	C48.858906,61.804939 44.928551,60.141098 43.292351,55.446220 
	C45.871792,53.179939 48.628902,53.111835 51.419849,54.991596 
	C52.699749,55.853642 53.564697,58.028416 55.492149,56.287788 
	C57.219254,54.728088 57.649780,52.534565 57.261608,50.325794 
	C56.905151,48.297462 56.087448,46.541615 53.575100,46.238651 
	C48.745014,45.656200 45.413700,48.117783 43.298038,51.910652 
	C41.140259,55.779037 38.282879,58.295929 34.178692,59.841797 
	C30.980663,61.046356 28.579967,63.524113 27.056067,66.572334 
	C25.836493,69.011818 25.117189,70.947968 27.742640,73.916710 
	C31.033918,77.638329 33.028061,82.809891 33.099987,88.146248 
	C33.178806,93.994057 33.762417,99.902702 32.775150,105.871895 
	C28.821869,104.890175 30.146322,101.997887 29.729889,100.273415 
	C27.367935,90.492416 23.290594,80.983276 23.785721,70.682373 
	C24.371325,58.499073 26.449337,46.907078 36.601845,38.295929 
	C39.142521,36.140980 40.910580,33.145401 44.316616,31.915365 
	C45.780823,31.386589 46.767067,30.146648 45.939415,28.317350 
	C44.028950,24.094784 41.911705,20.008194 38.975842,16.552387 
	C35.767834,17.265856 36.028076,20.881184 33.536976,21.784636 
	C32.876991,20.386909 33.523075,19.249247 33.960674,18.293432 
	C34.950970,16.130392 35.148125,13.186218 38.315460,12.753022 
	C41.473335,12.321120 42.514946,14.931217 43.979706,16.881620 
	C44.579208,17.679888 45.103577,18.534689 45.659969,19.365215 
	C52.394165,29.417315 52.391270,29.368736 64.467819,28.675550 
	C66.613060,28.552414 67.805954,27.443905 68.856575,25.873438 
	C70.801605,22.966000 72.702950,20.028597 74.689568,17.149969 
	C76.169853,15.005023 77.331940,12.103199 80.689568,12.817641 
	C83.945557,13.510454 84.031059,16.527533 84.770737,19.530724 
	C82.743790,19.185141 82.483124,16.839352 80.721840,16.751364 
	C74.370110,21.149958 72.133354,28.401188 76.017563,32.320190 
	C77.952553,32.944065 78.530197,30.181763 81.226112,30.704605 
	C78.017593,37.466183 84.524948,39.757179 87.434395,43.906166 
	C89.851547,47.353119 91.947693,50.940285 92.811333,55.076141 
	C93.399048,57.890610 94.901688,59.111229 97.695053,58.688110 
	C101.474396,58.115643 105.132767,60.586330 108.851616,59.304226 
	C109.931053,57.305679 107.170303,56.788589 107.609406,55.185799 
	C110.343300,54.152023 118.446243,43.678391 118.098495,41.351513 
	C117.145485,34.974758 113.706589,30.015068 108.419212,25.915375 
	C111.693192,25.757687 112.894699,26.237808 115.447067,28.580591 
	C117.809822,30.749319 119.670860,33.347229 121.053436,36.189739 
	C122.587502,39.343719 124.301422,41.925579 128.230759,41.236340 
	C129.528091,43.426502 128.265610,45.054325 127.644333,46.664967 
	C125.895393,51.198975 126.050995,55.712574 127.019577,60.395618 
	C127.525284,62.840729 128.513474,63.627735 130.962845,63.732819 
	C137.460526,64.011574 138.149612,65.020210 136.789520,71.420700 
	C139.409790,73.201218 142.113266,75.038292 144.887970,76.923752 
	C146.254501,71.862610 144.806351,66.791588 140.513794,64.328125 
	C137.431122,62.559006 136.926666,60.683735 137.628784,57.525383 
	C138.806244,52.228664 136.466156,47.135757 135.714890,41.382866 
	C140.321457,42.463516 142.004974,39.796017 143.703598,36.763664 
	C146.466293,31.831758 150.066132,27.731766 156.088974,26.505886 
	C152.395660,31.374599 146.548553,35.546719 147.294403,41.970562 
	C147.971802,47.804897 152.069199,52.779537 156.419800,57.500786 
	C154.195953,59.335957 153.536423,62.096691 153.468628,65.178131 
	C153.378479,69.275475 151.818680,72.963654 149.672256,76.397316 
	C148.538574,78.210861 147.811066,79.832344 149.680664,81.734825 
	C153.749161,85.874863 157.682922,90.147308 162.390823,95.126083 
	C166.540512,87.320938 163.251068,79.732391 163.284866,72.235939 
	C179.347351,77.219902 192.664627,86.358528 205.503357,97.519066 
	C207.170380,92.566605 209.050095,93.329567 211.634781,95.541672 
	C217.184967,100.291878 221.328888,106.020271 224.773071,112.749802 
	C225.000000,123.687561 225.000000,134.375122 224.740479,145.745911 
	C221.663651,148.716202 219.889557,151.668564 219.466751,155.244598 
	C218.543259,163.055450 214.577682,168.438263 207.191788,171.221832 
	C205.635986,171.808197 205.400040,172.862885 205.574615,174.380173 
	C206.449295,181.982361 208.352997,183.853165 216.853577,185.033600 
	C217.122421,184.350525 217.370987,183.592819 217.709778,182.877869 
	C220.884720,176.177841 220.694214,168.303375 225.000000,162.000000 
	C225.000000,164.041672 225.000000,166.083328 224.731323,168.788864 
	C222.159485,174.757263 220.310410,180.172913 219.971817,186.023636 
	C219.858429,187.982971 219.736877,190.165070 216.807419,190.054520 
	C206.100052,189.650406 197.510178,175.440292 201.996613,165.412033 
	C204.318787,165.559311 206.877945,168.499207 209.305542,164.889099 
	C216.272568,161.187378 214.199066,154.156509 216.236633,148.737656 
	C213.505249,154.035263 214.161209,160.764511 208.692261,165.111847 
	C205.699829,166.309280 203.793686,163.583099 201.095825,163.708420 
	C197.496872,168.196762 200.073410,172.859756 200.820908,177.431931 
	C201.327332,180.529526 202.738235,183.768661 198.921844,185.902618 
	C193.397400,177.850571 192.608612,157.786957 197.600952,151.843674 
	C199.977219,153.057358 200.124008,156.087891 202.177414,157.549393 
	C203.390503,158.412842 204.533325,159.655060 206.157059,159.257690 
	C208.072525,158.788925 207.722565,156.965179 207.946793,155.543503 
	C208.716888,150.661346 210.390884,145.920563 213.735703,142.455734 
	C220.241394,135.716629 221.641754,130.186661 215.876404,121.227516 
	C209.223267,110.888817 201.187164,103.163490 189.700394,101.102371 
	C182.201370,99.756790 174.100189,100.278999 166.307648,99.282532 
	C166.066956,99.251762 165.778473,99.594711 165.010391,100.081512 
	C169.985886,108.226433 173.168106,117.185371 175.599564,127.091827 
	C178.097641,123.645920 180.227631,120.806473 184.195480,122.989288 
	C186.457855,124.233887 187.524597,126.329399 186.704025,128.908325 
	C184.937317,134.460739 180.378891,132.025360 176.866959,131.913025 
	C176.639359,132.551987 176.442703,132.857529 176.435272,133.167633 
	C176.403412,134.497696 176.428741,135.829086 176.430573,137.160004 
	C176.452377,152.997177 173.183365,167.560715 160.482315,178.495346 
	C159.731293,179.141922 159.025040,179.886200 158.466629,180.700684 
	C157.512497,182.092331 158.046524,183.141037 159.378464,184.021439 
	C164.393906,187.336700 173.010712,183.373688 173.721069,177.429108 
	C174.003616,175.064758 174.237427,172.717239 173.200363,170.297836 
	C184.127045,169.222153 181.380737,158.145355 186.866425,152.098190 
	C187.058243,154.061157 187.389603,155.064926 187.208588,155.965729 
	C185.221893,165.852081 181.775833,175.242706 176.044586,183.533951 
	C171.340714,190.338898 163.180038,191.548889 156.231903,186.838577 
	C154.146103,185.424561 152.725220,185.680710 150.838776,186.746414 
	C146.481873,189.207718 141.949554,191.217010 137.020493,192.359634 
	C123.249397,195.551971 109.927551,193.742859 97.131454,188.350754 
	C92.394768,186.354782 89.367928,187.697647 86.380196,190.977188 
	C85.235649,192.233490 84.649918,193.727386 84.222916,195.391373 
	C83.336472,198.845840 81.848457,202.333221 78.631287,203.949142 
	C69.633415,208.468597 66.055183,217.307495 61.000000,225.000000 
	C49.979103,225.000000 38.958210,225.000000 27.468658,225.000000 
M118.107857,76.690872 
	C118.827126,80.549446 120.810127,81.233780 124.525757,79.581474 
	C122.473923,76.986313 120.127792,76.695137 117.484657,75.646423 
	C115.970001,75.143974 114.044945,73.893646 113.509415,76.513489 
	C112.932861,79.334023 112.991714,82.863510 115.771286,84.095161 
	C119.118607,85.578407 122.014397,87.917892 125.494530,89.002380 
	C129.737991,90.324745 133.891174,90.201569 138.469101,87.086349 
	C133.512451,84.402412 130.775040,78.950729 123.823959,81.961174 
	C119.497414,83.834953 116.553329,80.283264 118.107857,76.690872 
M94.538292,135.697662 
	C96.636024,139.928406 99.854294,143.338440 102.863800,146.880997 
	C107.308777,152.113281 109.971260,158.062729 110.776878,164.876862 
	C111.016144,166.900650 111.275345,168.855881 108.824509,170.586823 
	C106.511887,167.441177 103.288704,170.080109 100.489204,169.780289 
	C99.511131,167.588516 101.719231,165.886200 100.669556,163.255997 
	C97.700226,166.764084 94.361275,169.329727 95.463257,173.114319 
	C103.831612,176.217514 110.833923,180.322128 118.527046,181.405457 
	C126.400673,182.514221 134.615524,183.158600 142.477249,179.858353 
	C141.144485,173.129440 136.907288,167.488129 138.250961,160.313232 
	C140.747513,161.578918 140.646744,163.432816 141.157364,164.923584 
	C142.395859,168.539444 143.472733,172.211441 144.749054,175.813202 
	C145.237350,177.191177 145.929306,178.899796 147.891174,178.260071 
	C151.586960,177.054871 155.102661,175.195358 157.318298,172.007187 
	C159.373383,169.050018 155.883682,167.270462 154.680695,165.201614 
	C150.041626,157.223465 152.229858,151.677704 161.351334,150.238220 
	C165.020645,149.659149 165.798615,148.112457 166.004044,144.738846 
	C167.274048,123.882996 158.015793,107.514412 144.483124,92.828873 
	C142.522995,90.701752 140.741928,90.996658 138.284470,91.765938 
	C125.594749,95.738312 113.314873,90.513542 107.130554,78.727905 
	C106.230675,77.012970 105.378716,75.272896 104.467827,73.471779 
	C99.422707,79.672127 99.519249,87.144180 98.170258,94.149254 
	C97.670792,96.742920 99.690674,97.960632 101.932487,98.655731 
	C103.360085,99.098366 104.932426,98.151024 106.606667,99.321777 
	C106.806244,101.937439 108.136192,104.323441 110.353455,106.270561 
	C107.801498,110.621078 104.084435,113.405403 100.387268,116.202179 
	C93.479073,121.427979 91.813622,126.528389 94.538292,135.697662 
M76.295998,97.829124 
	C79.700516,94.842209 83.346977,92.246048 87.707870,90.819862 
	C89.016457,90.391907 90.204956,89.784790 90.769318,88.456894 
	C92.657005,84.015350 94.577560,79.585182 96.332932,75.091042 
	C97.291351,72.637253 96.252098,71.158478 93.590599,71.161736 
	C81.507263,71.176521 70.064507,72.719635 62.947155,84.562767 
	C65.798347,86.635956 68.486336,86.917419 71.624138,84.866577 
	C74.386040,83.061424 72.723450,78.478264 76.582802,77.359932 
	C76.775162,85.637962 72.561668,90.189964 66.080688,88.962021 
	C59.104008,87.640144 59.171127,87.660393 57.093212,94.551369 
	C53.865974,105.253853 56.895191,115.473083 58.693558,125.986992 
	C61.762756,143.930710 72.690010,156.367310 85.474655,167.819244 
	C86.776421,168.985321 88.132469,170.387283 90.151764,170.229584 
	C91.244774,169.369095 91.396782,168.279160 91.281693,167.050446 
	C90.958626,163.601440 89.330917,160.858307 87.215836,158.149429 
	C82.594582,152.230774 76.092384,147.971725 71.819778,142.023438 
	C65.531441,133.268890 63.512703,122.554428 61.593128,112.034065 
	C61.216454,109.969650 61.565552,108.215813 63.862053,107.792679 
	C69.551369,106.744408 73.221085,103.269760 76.295998,97.829124 
M59.677135,159.967819 
	C58.836117,159.057190 58.373219,157.524704 56.358376,158.165894 
	C54.332226,162.462357 54.933598,166.386581 58.531643,169.722305 
	C60.871086,171.891159 63.477139,172.833817 66.609924,170.627563 
	C64.344589,167.144821 62.199631,163.847153 59.677135,159.967819 
M216.901855,106.591476 
	C215.207672,104.278061 214.136047,101.428871 211.278870,99.879051 
	C211.802109,103.603973 216.335022,105.230522 215.935577,109.203651 
	C212.521744,110.343880 211.482758,106.067642 208.356354,106.858917 
	C211.462341,110.436890 215.598297,112.420242 219.829971,115.129692 
	C220.459595,111.355766 218.911957,109.263382 216.901855,106.591476 
z"/>
<path fill="#000000" opacity="1.000000" stroke="none" 
	d="
M216.986389,195.014526 
	C211.494644,193.587601 211.494644,193.587601 209.598129,189.442276 
	C212.478165,189.367477 214.899689,190.488800 217.249008,191.544998 
	C219.185760,192.415726 219.720627,193.786758 216.986389,195.014526 
z"/>
<path fill="#000000" opacity="1.000000" stroke="none" 
	d="
M148.974274,132.728531 
	C146.408279,135.255295 143.843796,135.856659 140.991348,134.184296 
	C138.597214,132.780624 137.627884,130.595627 137.786133,127.872055 
	C137.938889,125.243561 139.449829,123.567162 141.738251,122.580925 
	C144.122467,121.553413 146.405380,122.051590 148.213455,123.805176 
	C150.814407,126.327721 151.096588,129.282135 148.974274,132.728531 
z"/>
<path fill="#000000" opacity="1.000000" stroke="none" 
	d="
M116.741074,102.721146 
	C115.193054,102.831375 114.090019,102.647148 113.467545,101.092926 
	C114.564667,99.486519 115.741585,97.763275 117.392448,95.346085 
	C120.182091,98.305641 120.271439,100.468414 116.741074,102.721146 
z"/>
</svg>